<mxfile host="app.diagrams.net" modified="2024-05-19T03:28:53.575Z" agent="Mozilla/5.0 (X11; Ubuntu; Linux x86_64; rv:126.0) Gecko/20100101 Firefox/126.0" etag="J9FjWT0FgpCj6WDMp0ez" version="24.3.1" type="github">
  <diagram name="Page-1" id="rACyecbDCCsTYDg5sD9J">
    <mxGraphModel dx="1226" dy="824" grid="1" gridSize="10" guides="1" tooltips="1" connect="1" arrows="1" fold="1" page="1" pageScale="1" pageWidth="850" pageHeight="1100" math="0" shadow="0">
      <root>
        <mxCell id="0" />
        <mxCell id="1" parent="0" />
        <mxCell id="15PSuNRzQVREEu0Ag8zK-89" value="" style="rounded=0;whiteSpace=wrap;html=1;" parent="1" vertex="1">
          <mxGeometry x="100" y="40" width="600" height="720" as="geometry" />
        </mxCell>
        <mxCell id="15PSuNRzQVREEu0Ag8zK-31" value="Input Buffer" style="rounded=0;whiteSpace=wrap;html=1;verticalAlign=bottom;" parent="1" vertex="1">
          <mxGeometry x="140" y="210" width="220" height="240" as="geometry" />
        </mxCell>
        <mxCell id="15PSuNRzQVREEu0Ag8zK-1" value="" style="rounded=0;whiteSpace=wrap;html=1;" parent="1" vertex="1">
          <mxGeometry x="180" y="230" width="40" height="40" as="geometry" />
        </mxCell>
        <mxCell id="15PSuNRzQVREEu0Ag8zK-2" value="" style="rounded=0;whiteSpace=wrap;html=1;" parent="1" vertex="1">
          <mxGeometry x="220" y="230" width="40" height="40" as="geometry" />
        </mxCell>
        <mxCell id="15PSuNRzQVREEu0Ag8zK-3" value="" style="rounded=0;whiteSpace=wrap;html=1;" parent="1" vertex="1">
          <mxGeometry x="260" y="230" width="40" height="40" as="geometry" />
        </mxCell>
        <mxCell id="15PSuNRzQVREEu0Ag8zK-4" value="" style="rounded=0;whiteSpace=wrap;html=1;" parent="1" vertex="1">
          <mxGeometry x="300" y="230" width="40" height="40" as="geometry" />
        </mxCell>
        <mxCell id="15PSuNRzQVREEu0Ag8zK-5" value="VC1" style="text;html=1;align=center;verticalAlign=middle;whiteSpace=wrap;rounded=0;" parent="1" vertex="1">
          <mxGeometry x="140" y="230" width="40" height="40" as="geometry" />
        </mxCell>
        <mxCell id="15PSuNRzQVREEu0Ag8zK-6" value="" style="rounded=0;whiteSpace=wrap;html=1;" parent="1" vertex="1">
          <mxGeometry x="180" y="280" width="40" height="40" as="geometry" />
        </mxCell>
        <mxCell id="15PSuNRzQVREEu0Ag8zK-7" value="" style="rounded=0;whiteSpace=wrap;html=1;" parent="1" vertex="1">
          <mxGeometry x="220" y="280" width="40" height="40" as="geometry" />
        </mxCell>
        <mxCell id="15PSuNRzQVREEu0Ag8zK-8" value="" style="rounded=0;whiteSpace=wrap;html=1;" parent="1" vertex="1">
          <mxGeometry x="260" y="280" width="40" height="40" as="geometry" />
        </mxCell>
        <mxCell id="15PSuNRzQVREEu0Ag8zK-9" value="" style="rounded=0;whiteSpace=wrap;html=1;" parent="1" vertex="1">
          <mxGeometry x="300" y="280" width="40" height="40" as="geometry" />
        </mxCell>
        <mxCell id="15PSuNRzQVREEu0Ag8zK-10" value="VC2" style="text;html=1;align=center;verticalAlign=middle;whiteSpace=wrap;rounded=0;" parent="1" vertex="1">
          <mxGeometry x="140" y="280" width="40" height="40" as="geometry" />
        </mxCell>
        <mxCell id="15PSuNRzQVREEu0Ag8zK-21" value="" style="rounded=0;whiteSpace=wrap;html=1;" parent="1" vertex="1">
          <mxGeometry x="180" y="330" width="40" height="40" as="geometry" />
        </mxCell>
        <mxCell id="15PSuNRzQVREEu0Ag8zK-22" value="" style="rounded=0;whiteSpace=wrap;html=1;" parent="1" vertex="1">
          <mxGeometry x="220" y="330" width="40" height="40" as="geometry" />
        </mxCell>
        <mxCell id="15PSuNRzQVREEu0Ag8zK-23" value="" style="rounded=0;whiteSpace=wrap;html=1;" parent="1" vertex="1">
          <mxGeometry x="260" y="330" width="40" height="40" as="geometry" />
        </mxCell>
        <mxCell id="15PSuNRzQVREEu0Ag8zK-24" value="" style="rounded=0;whiteSpace=wrap;html=1;" parent="1" vertex="1">
          <mxGeometry x="300" y="330" width="40" height="40" as="geometry" />
        </mxCell>
        <mxCell id="15PSuNRzQVREEu0Ag8zK-25" value="VC3" style="text;html=1;align=center;verticalAlign=middle;whiteSpace=wrap;rounded=0;" parent="1" vertex="1">
          <mxGeometry x="140" y="330" width="40" height="40" as="geometry" />
        </mxCell>
        <mxCell id="15PSuNRzQVREEu0Ag8zK-26" value="" style="rounded=0;whiteSpace=wrap;html=1;" parent="1" vertex="1">
          <mxGeometry x="180" y="380" width="40" height="40" as="geometry" />
        </mxCell>
        <mxCell id="15PSuNRzQVREEu0Ag8zK-27" value="" style="rounded=0;whiteSpace=wrap;html=1;" parent="1" vertex="1">
          <mxGeometry x="220" y="380" width="40" height="40" as="geometry" />
        </mxCell>
        <mxCell id="15PSuNRzQVREEu0Ag8zK-28" value="" style="rounded=0;whiteSpace=wrap;html=1;" parent="1" vertex="1">
          <mxGeometry x="260" y="380" width="40" height="40" as="geometry" />
        </mxCell>
        <mxCell id="15PSuNRzQVREEu0Ag8zK-29" value="" style="rounded=0;whiteSpace=wrap;html=1;" parent="1" vertex="1">
          <mxGeometry x="300" y="380" width="40" height="40" as="geometry" />
        </mxCell>
        <mxCell id="15PSuNRzQVREEu0Ag8zK-30" value="&lt;div&gt;VC4&lt;/div&gt;" style="text;html=1;align=center;verticalAlign=middle;whiteSpace=wrap;rounded=0;" parent="1" vertex="1">
          <mxGeometry x="140" y="380" width="40" height="40" as="geometry" />
        </mxCell>
        <mxCell id="15PSuNRzQVREEu0Ag8zK-33" value="Input Buffer" style="rounded=0;whiteSpace=wrap;html=1;verticalAlign=bottom;" parent="1" vertex="1">
          <mxGeometry x="140" y="490" width="220" height="240" as="geometry" />
        </mxCell>
        <mxCell id="15PSuNRzQVREEu0Ag8zK-34" value="" style="rounded=0;whiteSpace=wrap;html=1;" parent="1" vertex="1">
          <mxGeometry x="180" y="510" width="40" height="40" as="geometry" />
        </mxCell>
        <mxCell id="15PSuNRzQVREEu0Ag8zK-35" value="" style="rounded=0;whiteSpace=wrap;html=1;" parent="1" vertex="1">
          <mxGeometry x="220" y="510" width="40" height="40" as="geometry" />
        </mxCell>
        <mxCell id="15PSuNRzQVREEu0Ag8zK-36" value="" style="rounded=0;whiteSpace=wrap;html=1;" parent="1" vertex="1">
          <mxGeometry x="260" y="510" width="40" height="40" as="geometry" />
        </mxCell>
        <mxCell id="15PSuNRzQVREEu0Ag8zK-37" value="" style="rounded=0;whiteSpace=wrap;html=1;" parent="1" vertex="1">
          <mxGeometry x="300" y="510" width="40" height="40" as="geometry" />
        </mxCell>
        <mxCell id="15PSuNRzQVREEu0Ag8zK-38" value="VC1" style="text;html=1;align=center;verticalAlign=middle;whiteSpace=wrap;rounded=0;" parent="1" vertex="1">
          <mxGeometry x="140" y="510" width="40" height="40" as="geometry" />
        </mxCell>
        <mxCell id="15PSuNRzQVREEu0Ag8zK-39" value="" style="rounded=0;whiteSpace=wrap;html=1;" parent="1" vertex="1">
          <mxGeometry x="180" y="560" width="40" height="40" as="geometry" />
        </mxCell>
        <mxCell id="15PSuNRzQVREEu0Ag8zK-40" value="" style="rounded=0;whiteSpace=wrap;html=1;" parent="1" vertex="1">
          <mxGeometry x="220" y="560" width="40" height="40" as="geometry" />
        </mxCell>
        <mxCell id="15PSuNRzQVREEu0Ag8zK-41" value="" style="rounded=0;whiteSpace=wrap;html=1;" parent="1" vertex="1">
          <mxGeometry x="260" y="560" width="40" height="40" as="geometry" />
        </mxCell>
        <mxCell id="15PSuNRzQVREEu0Ag8zK-42" value="" style="rounded=0;whiteSpace=wrap;html=1;" parent="1" vertex="1">
          <mxGeometry x="300" y="560" width="40" height="40" as="geometry" />
        </mxCell>
        <mxCell id="15PSuNRzQVREEu0Ag8zK-43" value="VC2" style="text;html=1;align=center;verticalAlign=middle;whiteSpace=wrap;rounded=0;" parent="1" vertex="1">
          <mxGeometry x="140" y="560" width="40" height="40" as="geometry" />
        </mxCell>
        <mxCell id="15PSuNRzQVREEu0Ag8zK-44" value="" style="rounded=0;whiteSpace=wrap;html=1;" parent="1" vertex="1">
          <mxGeometry x="180" y="610" width="40" height="40" as="geometry" />
        </mxCell>
        <mxCell id="15PSuNRzQVREEu0Ag8zK-45" value="" style="rounded=0;whiteSpace=wrap;html=1;" parent="1" vertex="1">
          <mxGeometry x="220" y="610" width="40" height="40" as="geometry" />
        </mxCell>
        <mxCell id="15PSuNRzQVREEu0Ag8zK-46" value="" style="rounded=0;whiteSpace=wrap;html=1;" parent="1" vertex="1">
          <mxGeometry x="260" y="610" width="40" height="40" as="geometry" />
        </mxCell>
        <mxCell id="15PSuNRzQVREEu0Ag8zK-47" value="" style="rounded=0;whiteSpace=wrap;html=1;" parent="1" vertex="1">
          <mxGeometry x="300" y="610" width="40" height="40" as="geometry" />
        </mxCell>
        <mxCell id="15PSuNRzQVREEu0Ag8zK-48" value="VC3" style="text;html=1;align=center;verticalAlign=middle;whiteSpace=wrap;rounded=0;" parent="1" vertex="1">
          <mxGeometry x="140" y="610" width="40" height="40" as="geometry" />
        </mxCell>
        <mxCell id="15PSuNRzQVREEu0Ag8zK-49" value="" style="rounded=0;whiteSpace=wrap;html=1;" parent="1" vertex="1">
          <mxGeometry x="180" y="660" width="40" height="40" as="geometry" />
        </mxCell>
        <mxCell id="15PSuNRzQVREEu0Ag8zK-50" value="" style="rounded=0;whiteSpace=wrap;html=1;" parent="1" vertex="1">
          <mxGeometry x="220" y="660" width="40" height="40" as="geometry" />
        </mxCell>
        <mxCell id="15PSuNRzQVREEu0Ag8zK-51" value="" style="rounded=0;whiteSpace=wrap;html=1;" parent="1" vertex="1">
          <mxGeometry x="260" y="660" width="40" height="40" as="geometry" />
        </mxCell>
        <mxCell id="15PSuNRzQVREEu0Ag8zK-52" value="" style="rounded=0;whiteSpace=wrap;html=1;" parent="1" vertex="1">
          <mxGeometry x="300" y="660" width="40" height="40" as="geometry" />
        </mxCell>
        <mxCell id="15PSuNRzQVREEu0Ag8zK-53" value="&lt;div&gt;VC4&lt;/div&gt;" style="text;html=1;align=center;verticalAlign=middle;whiteSpace=wrap;rounded=0;" parent="1" vertex="1">
          <mxGeometry x="140" y="660" width="40" height="40" as="geometry" />
        </mxCell>
        <mxCell id="15PSuNRzQVREEu0Ag8zK-54" value="" style="shape=waypoint;sketch=0;fillStyle=solid;size=6;pointerEvents=1;points=[];fillColor=none;resizable=0;rotatable=0;perimeter=centerPerimeter;snapToPoint=1;" parent="1" vertex="1">
          <mxGeometry x="150" y="460" width="20" height="20" as="geometry" />
        </mxCell>
        <mxCell id="15PSuNRzQVREEu0Ag8zK-55" value="" style="shape=waypoint;sketch=0;fillStyle=solid;size=6;pointerEvents=1;points=[];fillColor=none;resizable=0;rotatable=0;perimeter=centerPerimeter;snapToPoint=1;" parent="1" vertex="1">
          <mxGeometry x="230" y="460" width="20" height="20" as="geometry" />
        </mxCell>
        <mxCell id="15PSuNRzQVREEu0Ag8zK-56" value="" style="shape=waypoint;sketch=0;fillStyle=solid;size=6;pointerEvents=1;points=[];fillColor=none;resizable=0;rotatable=0;perimeter=centerPerimeter;snapToPoint=1;" parent="1" vertex="1">
          <mxGeometry x="190" y="460" width="20" height="20" as="geometry" />
        </mxCell>
        <mxCell id="15PSuNRzQVREEu0Ag8zK-57" value="" style="shape=waypoint;sketch=0;fillStyle=solid;size=6;pointerEvents=1;points=[];fillColor=none;resizable=0;rotatable=0;perimeter=centerPerimeter;snapToPoint=1;" parent="1" vertex="1">
          <mxGeometry x="190" y="460" width="20" height="20" as="geometry" />
        </mxCell>
        <mxCell id="15PSuNRzQVREEu0Ag8zK-58" value="" style="shape=waypoint;sketch=0;fillStyle=solid;size=6;pointerEvents=1;points=[];fillColor=none;resizable=0;rotatable=0;perimeter=centerPerimeter;snapToPoint=1;" parent="1" vertex="1">
          <mxGeometry x="230" y="460" width="20" height="20" as="geometry" />
        </mxCell>
        <mxCell id="15PSuNRzQVREEu0Ag8zK-59" value="" style="shape=waypoint;sketch=0;fillStyle=solid;size=6;pointerEvents=1;points=[];fillColor=none;resizable=0;rotatable=0;perimeter=centerPerimeter;snapToPoint=1;" parent="1" vertex="1">
          <mxGeometry x="230" y="460" width="20" height="20" as="geometry" />
        </mxCell>
        <mxCell id="15PSuNRzQVREEu0Ag8zK-60" value="" style="shape=waypoint;sketch=0;fillStyle=solid;size=6;pointerEvents=1;points=[];fillColor=none;resizable=0;rotatable=0;perimeter=centerPerimeter;snapToPoint=1;" parent="1" vertex="1">
          <mxGeometry x="270" y="460" width="20" height="20" as="geometry" />
        </mxCell>
        <mxCell id="15PSuNRzQVREEu0Ag8zK-61" value="" style="shape=waypoint;sketch=0;fillStyle=solid;size=6;pointerEvents=1;points=[];fillColor=none;resizable=0;rotatable=0;perimeter=centerPerimeter;snapToPoint=1;" parent="1" vertex="1">
          <mxGeometry x="305" y="460" width="20" height="20" as="geometry" />
        </mxCell>
        <mxCell id="15PSuNRzQVREEu0Ag8zK-63" value="&lt;div&gt;Rouer&lt;/div&gt;&lt;div&gt;Computation&lt;/div&gt;" style="rounded=0;whiteSpace=wrap;html=1;" parent="1" vertex="1">
          <mxGeometry x="140" y="110" width="110" height="39" as="geometry" />
        </mxCell>
        <mxCell id="15PSuNRzQVREEu0Ag8zK-64" value="" style="endArrow=classic;startArrow=classic;html=1;rounded=0;entryX=0.5;entryY=1;entryDx=0;entryDy=0;exitX=0.25;exitY=0;exitDx=0;exitDy=0;" parent="1" source="15PSuNRzQVREEu0Ag8zK-31" target="15PSuNRzQVREEu0Ag8zK-63" edge="1">
          <mxGeometry width="50" height="50" relative="1" as="geometry">
            <mxPoint x="10" y="200" as="sourcePoint" />
            <mxPoint x="60" y="150" as="targetPoint" />
          </mxGeometry>
        </mxCell>
        <mxCell id="15PSuNRzQVREEu0Ag8zK-65" value="VC Allocator" style="rounded=0;whiteSpace=wrap;html=1;" parent="1" vertex="1">
          <mxGeometry x="499" y="70" width="120" height="40" as="geometry" />
        </mxCell>
        <mxCell id="15PSuNRzQVREEu0Ag8zK-66" value="Switch Allocator" style="rounded=0;whiteSpace=wrap;html=1;" parent="1" vertex="1">
          <mxGeometry x="499" y="110" width="120" height="40" as="geometry" />
        </mxCell>
        <mxCell id="15PSuNRzQVREEu0Ag8zK-67" value="Crossbar Switch" style="rounded=0;whiteSpace=wrap;html=1;verticalAlign=bottom;" parent="1" vertex="1">
          <mxGeometry x="459" y="210" width="200" height="520" as="geometry" />
        </mxCell>
        <mxCell id="15PSuNRzQVREEu0Ag8zK-75" value="" style="group" parent="1" vertex="1" connectable="0">
          <mxGeometry x="479" y="310" width="160" height="320" as="geometry" />
        </mxCell>
        <mxCell id="15PSuNRzQVREEu0Ag8zK-69" value="" style="endArrow=none;html=1;rounded=0;" parent="15PSuNRzQVREEu0Ag8zK-75" edge="1">
          <mxGeometry width="50" height="50" relative="1" as="geometry">
            <mxPoint x="20" y="320" as="sourcePoint" />
            <mxPoint x="140" as="targetPoint" />
          </mxGeometry>
        </mxCell>
        <mxCell id="15PSuNRzQVREEu0Ag8zK-70" value="" style="endArrow=none;html=1;rounded=0;" parent="15PSuNRzQVREEu0Ag8zK-75" edge="1">
          <mxGeometry width="50" height="50" relative="1" as="geometry">
            <mxPoint x="140" y="320" as="sourcePoint" />
            <mxPoint x="20" as="targetPoint" />
          </mxGeometry>
        </mxCell>
        <mxCell id="15PSuNRzQVREEu0Ag8zK-71" value="" style="endArrow=none;html=1;rounded=0;" parent="15PSuNRzQVREEu0Ag8zK-75" edge="1">
          <mxGeometry width="50" height="50" relative="1" as="geometry">
            <mxPoint as="sourcePoint" />
            <mxPoint x="20" as="targetPoint" />
          </mxGeometry>
        </mxCell>
        <mxCell id="15PSuNRzQVREEu0Ag8zK-72" value="" style="endArrow=none;html=1;rounded=0;" parent="15PSuNRzQVREEu0Ag8zK-75" edge="1">
          <mxGeometry width="50" height="50" relative="1" as="geometry">
            <mxPoint x="140" y="320" as="sourcePoint" />
            <mxPoint x="160" y="320" as="targetPoint" />
          </mxGeometry>
        </mxCell>
        <mxCell id="15PSuNRzQVREEu0Ag8zK-73" value="" style="endArrow=none;html=1;rounded=0;" parent="15PSuNRzQVREEu0Ag8zK-75" edge="1">
          <mxGeometry width="50" height="50" relative="1" as="geometry">
            <mxPoint y="320" as="sourcePoint" />
            <mxPoint x="20" y="320" as="targetPoint" />
          </mxGeometry>
        </mxCell>
        <mxCell id="15PSuNRzQVREEu0Ag8zK-74" value="" style="endArrow=none;html=1;rounded=0;" parent="15PSuNRzQVREEu0Ag8zK-75" edge="1">
          <mxGeometry width="50" height="50" relative="1" as="geometry">
            <mxPoint x="140" as="sourcePoint" />
            <mxPoint x="160" as="targetPoint" />
          </mxGeometry>
        </mxCell>
        <mxCell id="15PSuNRzQVREEu0Ag8zK-76" value="" style="endArrow=classic;html=1;rounded=0;exitX=1;exitY=0.5;exitDx=0;exitDy=0;" parent="1" source="15PSuNRzQVREEu0Ag8zK-31" edge="1">
          <mxGeometry width="50" height="50" relative="1" as="geometry">
            <mxPoint x="820" y="330" as="sourcePoint" />
            <mxPoint x="460" y="330" as="targetPoint" />
            <Array as="points">
              <mxPoint x="400" y="330" />
            </Array>
          </mxGeometry>
        </mxCell>
        <mxCell id="15PSuNRzQVREEu0Ag8zK-77" value="" style="endArrow=classic;html=1;rounded=0;exitX=1;exitY=0.5;exitDx=0;exitDy=0;" parent="1" edge="1">
          <mxGeometry width="50" height="50" relative="1" as="geometry">
            <mxPoint x="360" y="610" as="sourcePoint" />
            <mxPoint x="460" y="610" as="targetPoint" />
          </mxGeometry>
        </mxCell>
        <mxCell id="15PSuNRzQVREEu0Ag8zK-78" value="" style="endArrow=classic;html=1;rounded=0;" parent="1" edge="1">
          <mxGeometry width="50" height="50" relative="1" as="geometry">
            <mxPoint x="40" y="310" as="sourcePoint" />
            <mxPoint x="140" y="310" as="targetPoint" />
            <Array as="points">
              <mxPoint x="80" y="310" />
            </Array>
          </mxGeometry>
        </mxCell>
        <mxCell id="15PSuNRzQVREEu0Ag8zK-79" value="" style="endArrow=classic;html=1;rounded=0;exitX=1;exitY=0.5;exitDx=0;exitDy=0;" parent="1" edge="1">
          <mxGeometry width="50" height="50" relative="1" as="geometry">
            <mxPoint x="659" y="608.46" as="sourcePoint" />
            <mxPoint x="759" y="608.46" as="targetPoint" />
          </mxGeometry>
        </mxCell>
        <mxCell id="15PSuNRzQVREEu0Ag8zK-80" value="" style="endArrow=classic;html=1;rounded=0;exitX=1;exitY=0.5;exitDx=0;exitDy=0;" parent="1" edge="1">
          <mxGeometry width="50" height="50" relative="1" as="geometry">
            <mxPoint x="40" y="610" as="sourcePoint" />
            <mxPoint x="140" y="610" as="targetPoint" />
            <Array as="points">
              <mxPoint x="80" y="610" />
            </Array>
          </mxGeometry>
        </mxCell>
        <mxCell id="15PSuNRzQVREEu0Ag8zK-81" value="" style="endArrow=classic;html=1;rounded=0;exitX=1;exitY=0.5;exitDx=0;exitDy=0;" parent="1" edge="1">
          <mxGeometry width="50" height="50" relative="1" as="geometry">
            <mxPoint x="659" y="330.00000000000006" as="sourcePoint" />
            <mxPoint x="759" y="330.00000000000006" as="targetPoint" />
          </mxGeometry>
        </mxCell>
        <mxCell id="15PSuNRzQVREEu0Ag8zK-82" value="" style="endArrow=classic;html=1;rounded=0;exitX=0.5;exitY=1;exitDx=0;exitDy=0;entryX=0.5;entryY=0;entryDx=0;entryDy=0;" parent="1" source="15PSuNRzQVREEu0Ag8zK-66" target="15PSuNRzQVREEu0Ag8zK-67" edge="1">
          <mxGeometry width="50" height="50" relative="1" as="geometry">
            <mxPoint x="830" y="200" as="sourcePoint" />
            <mxPoint x="880" y="150" as="targetPoint" />
          </mxGeometry>
        </mxCell>
        <mxCell id="15PSuNRzQVREEu0Ag8zK-83" value="" style="endArrow=classic;startArrow=classic;html=1;rounded=0;entryX=0;entryY=0.5;entryDx=0;entryDy=0;exitX=0.906;exitY=0.005;exitDx=0;exitDy=0;exitPerimeter=0;" parent="1" source="15PSuNRzQVREEu0Ag8zK-31" target="15PSuNRzQVREEu0Ag8zK-66" edge="1">
          <mxGeometry width="50" height="50" relative="1" as="geometry">
            <mxPoint x="330" y="210" as="sourcePoint" />
            <mxPoint x="380" y="160" as="targetPoint" />
            <Array as="points">
              <mxPoint x="339" y="130" />
            </Array>
          </mxGeometry>
        </mxCell>
        <mxCell id="15PSuNRzQVREEu0Ag8zK-84" value="" style="endArrow=classic;startArrow=classic;html=1;rounded=0;exitX=0.728;exitY=0.005;exitDx=0;exitDy=0;entryX=0;entryY=0.75;entryDx=0;entryDy=0;exitPerimeter=0;" parent="1" source="15PSuNRzQVREEu0Ag8zK-31" target="15PSuNRzQVREEu0Ag8zK-65" edge="1">
          <mxGeometry width="50" height="50" relative="1" as="geometry">
            <mxPoint x="320" y="100" as="sourcePoint" />
            <mxPoint x="370" y="50" as="targetPoint" />
            <Array as="points">
              <mxPoint x="300" y="100" />
            </Array>
          </mxGeometry>
        </mxCell>
        <mxCell id="15PSuNRzQVREEu0Ag8zK-85" value="" style="endArrow=classic;html=1;rounded=0;exitX=0;exitY=0.5;exitDx=0;exitDy=0;" parent="1" source="15PSuNRzQVREEu0Ag8zK-65" edge="1">
          <mxGeometry width="50" height="50" relative="1" as="geometry">
            <mxPoint x="-50" y="100" as="sourcePoint" />
            <mxPoint x="40" y="90" as="targetPoint" />
          </mxGeometry>
        </mxCell>
        <mxCell id="15PSuNRzQVREEu0Ag8zK-86" value="" style="endArrow=classic;html=1;rounded=0;exitX=0;exitY=0.5;exitDx=0;exitDy=0;" parent="1" edge="1">
          <mxGeometry width="50" height="50" relative="1" as="geometry">
            <mxPoint x="499" y="80" as="sourcePoint" />
            <mxPoint x="40" y="80" as="targetPoint" />
          </mxGeometry>
        </mxCell>
        <mxCell id="15PSuNRzQVREEu0Ag8zK-87" value="" style="endArrow=classic;html=1;rounded=0;entryX=1;entryY=0.25;entryDx=0;entryDy=0;" parent="1" target="15PSuNRzQVREEu0Ag8zK-65" edge="1">
          <mxGeometry width="50" height="50" relative="1" as="geometry">
            <mxPoint x="760" y="80" as="sourcePoint" />
            <mxPoint x="850" y="70" as="targetPoint" />
          </mxGeometry>
        </mxCell>
        <mxCell id="15PSuNRzQVREEu0Ag8zK-88" value="" style="endArrow=classic;html=1;rounded=0;entryX=1;entryY=0.25;entryDx=0;entryDy=0;" parent="1" edge="1">
          <mxGeometry width="50" height="50" relative="1" as="geometry">
            <mxPoint x="760" y="100" as="sourcePoint" />
            <mxPoint x="619" y="100" as="targetPoint" />
          </mxGeometry>
        </mxCell>
        <mxCell id="15PSuNRzQVREEu0Ag8zK-90" value="Credits Input" style="text;html=1;align=center;verticalAlign=middle;whiteSpace=wrap;rounded=0;" parent="1" vertex="1">
          <mxGeometry x="700" y="50" width="60" height="30" as="geometry" />
        </mxCell>
        <mxCell id="15PSuNRzQVREEu0Ag8zK-91" value="Output 1" style="text;html=1;align=center;verticalAlign=middle;whiteSpace=wrap;rounded=0;" parent="1" vertex="1">
          <mxGeometry x="700" y="300" width="60" height="30" as="geometry" />
        </mxCell>
        <mxCell id="15PSuNRzQVREEu0Ag8zK-92" value="Output 5" style="text;html=1;align=center;verticalAlign=middle;whiteSpace=wrap;rounded=0;" parent="1" vertex="1">
          <mxGeometry x="700" y="580" width="60" height="30" as="geometry" />
        </mxCell>
        <mxCell id="15PSuNRzQVREEu0Ag8zK-93" value="" style="shape=waypoint;sketch=0;fillStyle=solid;size=6;pointerEvents=1;points=[];fillColor=none;resizable=0;rotatable=0;perimeter=centerPerimeter;snapToPoint=1;" parent="1" vertex="1">
          <mxGeometry x="720" y="350" width="20" height="20" as="geometry" />
        </mxCell>
        <mxCell id="15PSuNRzQVREEu0Ag8zK-94" value="" style="shape=waypoint;sketch=0;fillStyle=solid;size=6;pointerEvents=1;points=[];fillColor=none;resizable=0;rotatable=0;perimeter=centerPerimeter;snapToPoint=1;" parent="1" vertex="1">
          <mxGeometry x="720" y="390" width="20" height="20" as="geometry" />
        </mxCell>
        <mxCell id="15PSuNRzQVREEu0Ag8zK-95" value="" style="shape=waypoint;sketch=0;fillStyle=solid;size=6;pointerEvents=1;points=[];fillColor=none;resizable=0;rotatable=0;perimeter=centerPerimeter;snapToPoint=1;" parent="1" vertex="1">
          <mxGeometry x="720" y="430" width="20" height="20" as="geometry" />
        </mxCell>
        <mxCell id="15PSuNRzQVREEu0Ag8zK-96" value="" style="shape=waypoint;sketch=0;fillStyle=solid;size=6;pointerEvents=1;points=[];fillColor=none;resizable=0;rotatable=0;perimeter=centerPerimeter;snapToPoint=1;" parent="1" vertex="1">
          <mxGeometry x="720" y="470" width="20" height="20" as="geometry" />
        </mxCell>
        <mxCell id="15PSuNRzQVREEu0Ag8zK-97" value="" style="shape=waypoint;sketch=0;fillStyle=solid;size=6;pointerEvents=1;points=[];fillColor=none;resizable=0;rotatable=0;perimeter=centerPerimeter;snapToPoint=1;" parent="1" vertex="1">
          <mxGeometry x="720" y="510" width="20" height="20" as="geometry" />
        </mxCell>
        <mxCell id="15PSuNRzQVREEu0Ag8zK-98" value="" style="shape=waypoint;sketch=0;fillStyle=solid;size=6;pointerEvents=1;points=[];fillColor=none;resizable=0;rotatable=0;perimeter=centerPerimeter;snapToPoint=1;" parent="1" vertex="1">
          <mxGeometry x="720" y="550" width="20" height="20" as="geometry" />
        </mxCell>
        <mxCell id="15PSuNRzQVREEu0Ag8zK-99" value="" style="shape=waypoint;sketch=0;fillStyle=solid;size=6;pointerEvents=1;points=[];fillColor=none;resizable=0;rotatable=0;perimeter=centerPerimeter;snapToPoint=1;" parent="1" vertex="1">
          <mxGeometry x="60" y="350" width="20" height="20" as="geometry" />
        </mxCell>
        <mxCell id="15PSuNRzQVREEu0Ag8zK-100" value="" style="shape=waypoint;sketch=0;fillStyle=solid;size=6;pointerEvents=1;points=[];fillColor=none;resizable=0;rotatable=0;perimeter=centerPerimeter;snapToPoint=1;" parent="1" vertex="1">
          <mxGeometry x="60" y="390" width="20" height="20" as="geometry" />
        </mxCell>
        <mxCell id="15PSuNRzQVREEu0Ag8zK-101" value="" style="shape=waypoint;sketch=0;fillStyle=solid;size=6;pointerEvents=1;points=[];fillColor=none;resizable=0;rotatable=0;perimeter=centerPerimeter;snapToPoint=1;" parent="1" vertex="1">
          <mxGeometry x="60" y="430" width="20" height="20" as="geometry" />
        </mxCell>
        <mxCell id="15PSuNRzQVREEu0Ag8zK-102" value="" style="shape=waypoint;sketch=0;fillStyle=solid;size=6;pointerEvents=1;points=[];fillColor=none;resizable=0;rotatable=0;perimeter=centerPerimeter;snapToPoint=1;" parent="1" vertex="1">
          <mxGeometry x="60" y="510" width="20" height="20" as="geometry" />
        </mxCell>
        <mxCell id="15PSuNRzQVREEu0Ag8zK-103" value="" style="shape=waypoint;sketch=0;fillStyle=solid;size=6;pointerEvents=1;points=[];fillColor=none;resizable=0;rotatable=0;perimeter=centerPerimeter;snapToPoint=1;" parent="1" vertex="1">
          <mxGeometry x="60" y="550" width="20" height="20" as="geometry" />
        </mxCell>
        <mxCell id="15PSuNRzQVREEu0Ag8zK-104" value="" style="shape=waypoint;sketch=0;fillStyle=solid;size=6;pointerEvents=1;points=[];fillColor=none;resizable=0;rotatable=0;perimeter=centerPerimeter;snapToPoint=1;" parent="1" vertex="1">
          <mxGeometry x="60" y="470" width="20" height="20" as="geometry" />
        </mxCell>
        <mxCell id="15PSuNRzQVREEu0Ag8zK-105" value="Input 1" style="text;html=1;align=center;verticalAlign=middle;whiteSpace=wrap;rounded=0;" parent="1" vertex="1">
          <mxGeometry x="40" y="280" width="60" height="30" as="geometry" />
        </mxCell>
        <mxCell id="15PSuNRzQVREEu0Ag8zK-106" value="Input 5" style="text;html=1;align=center;verticalAlign=middle;whiteSpace=wrap;rounded=0;" parent="1" vertex="1">
          <mxGeometry x="40" y="580" width="60" height="30" as="geometry" />
        </mxCell>
        <mxCell id="15PSuNRzQVREEu0Ag8zK-107" value="Credits Output" style="text;html=1;align=center;verticalAlign=middle;whiteSpace=wrap;rounded=0;" parent="1" vertex="1">
          <mxGeometry x="40" y="50" width="60" height="30" as="geometry" />
        </mxCell>
        <mxCell id="LqC_wLi7MVRk5jKTNnY0-1" value="" style="shape=waypoint;sketch=0;fillStyle=solid;size=6;pointerEvents=1;points=[];fillColor=none;resizable=0;rotatable=0;perimeter=centerPerimeter;snapToPoint=1;" vertex="1" parent="1">
          <mxGeometry x="400" y="350" width="20" height="20" as="geometry" />
        </mxCell>
        <mxCell id="LqC_wLi7MVRk5jKTNnY0-2" value="" style="shape=waypoint;sketch=0;fillStyle=solid;size=6;pointerEvents=1;points=[];fillColor=none;resizable=0;rotatable=0;perimeter=centerPerimeter;snapToPoint=1;" vertex="1" parent="1">
          <mxGeometry x="400" y="390" width="20" height="20" as="geometry" />
        </mxCell>
        <mxCell id="LqC_wLi7MVRk5jKTNnY0-3" value="" style="shape=waypoint;sketch=0;fillStyle=solid;size=6;pointerEvents=1;points=[];fillColor=none;resizable=0;rotatable=0;perimeter=centerPerimeter;snapToPoint=1;" vertex="1" parent="1">
          <mxGeometry x="400" y="430" width="20" height="20" as="geometry" />
        </mxCell>
        <mxCell id="LqC_wLi7MVRk5jKTNnY0-4" value="" style="shape=waypoint;sketch=0;fillStyle=solid;size=6;pointerEvents=1;points=[];fillColor=none;resizable=0;rotatable=0;perimeter=centerPerimeter;snapToPoint=1;" vertex="1" parent="1">
          <mxGeometry x="400" y="470" width="20" height="20" as="geometry" />
        </mxCell>
        <mxCell id="LqC_wLi7MVRk5jKTNnY0-5" value="" style="shape=waypoint;sketch=0;fillStyle=solid;size=6;pointerEvents=1;points=[];fillColor=none;resizable=0;rotatable=0;perimeter=centerPerimeter;snapToPoint=1;" vertex="1" parent="1">
          <mxGeometry x="400" y="510" width="20" height="20" as="geometry" />
        </mxCell>
        <mxCell id="LqC_wLi7MVRk5jKTNnY0-6" value="" style="shape=waypoint;sketch=0;fillStyle=solid;size=6;pointerEvents=1;points=[];fillColor=none;resizable=0;rotatable=0;perimeter=centerPerimeter;snapToPoint=1;" vertex="1" parent="1">
          <mxGeometry x="400" y="550" width="20" height="20" as="geometry" />
        </mxCell>
      </root>
    </mxGraphModel>
  </diagram>
</mxfile>
